<?xml version="1.0" encoding="UTF-8" standalone="no"?>
<svg
   xmlns:dc="http://purl.org/dc/elements/1.1/"
   xmlns:cc="http://creativecommons.org/ns#"
   xmlns:rdf="http://www.w3.org/1999/02/22-rdf-syntax-ns#"
   xmlns:svg="http://www.w3.org/2000/svg"
   xmlns="http://www.w3.org/2000/svg"
   version="1.1"
   id="svg2"
   viewBox="0 0 24 24"
   height="24"
   width="24">
  <defs
     id="defs4" />
  <metadata
     id="metadata7">
    <rdf:RDF>
      <cc:Work
         rdf:about="">
        <dc:format>image/svg+xml</dc:format>
        <dc:type
           rdf:resource="http://purl.org/dc/dcmitype/StillImage" />
        <dc:title></dc:title>
      </cc:Work>
    </rdf:RDF>
  </metadata>
  <g
     style="display:none;opacity:0.356"
     transform="translate(0,-1028.4)"
     id="layer1">
    <rect
       rx="2"
       ry="2"
       y="1032.4"
       x="2"
       height="16"
       width="20"
       id="rect4140"
       style="opacity:1;fill:none;fill-opacity:1;stroke:#ffea03;stroke-width:0.1;stroke-linecap:round;stroke-linejoin:round;stroke-miterlimit:4;stroke-dasharray:none;stroke-dashoffset:0;stroke-opacity:1" />
    <rect
       ry="2"
       rx="2"
       y="1030.4"
       x="4"
       height="20"
       width="16"
       id="rect4142"
       style="opacity:1;fill:none;fill-opacity:1;stroke:#ffea03;stroke-width:0.1;stroke-linecap:round;stroke-linejoin:round;stroke-miterlimit:4;stroke-dasharray:none;stroke-dashoffset:0;stroke-opacity:1" />
    <rect
       ry="2"
       rx="2"
       y="1031.4"
       x="3"
       height="18"
       width="18"
       id="rect4144"
       style="opacity:1;fill:none;fill-opacity:1;stroke:#ffea03;stroke-width:0.1;stroke-linecap:round;stroke-linejoin:round;stroke-miterlimit:4;stroke-dasharray:none;stroke-dashoffset:0;stroke-opacity:1" />
    <circle
       r="5"
       cy="1040.4"
       cx="12"
       id="path4146"
       style="opacity:1;fill:none;fill-opacity:1;stroke:#ffea03;stroke-width:0.1;stroke-linecap:round;stroke-linejoin:round;stroke-miterlimit:4;stroke-dasharray:none;stroke-dashoffset:0;stroke-opacity:1" />
    <circle
       r="10"
       cy="1040.4"
       cx="12"
       id="path4148"
       style="opacity:1;fill:none;fill-opacity:1;stroke:#ffea03;stroke-width:0.1;stroke-linecap:round;stroke-linejoin:round;stroke-miterlimit:4;stroke-dasharray:none;stroke-dashoffset:0;stroke-opacity:1" />
    <path
       id="path4150"
       d="m 0,1028.4 24,24"
       style="opacity:1;fill:none;fill-opacity:1;stroke:#ffea03;stroke-width:0.1;stroke-linecap:round;stroke-linejoin:round;stroke-miterlimit:4;stroke-dasharray:none;stroke-dashoffset:0;stroke-opacity:1" />
    <path
       id="path4152"
       d="m 24,1028.4 -24,24"
       style="opacity:1;fill:none;fill-opacity:1;stroke:#ffea03;stroke-width:0.1;stroke-linecap:round;stroke-linejoin:round;stroke-miterlimit:4;stroke-dasharray:none;stroke-dashoffset:0;stroke-opacity:1" />
  </g>
  <g
     style="display:none"
     id="layer2">
    <path
       id="rect4155"
       d="m 12,3 c -1.108,0 -2,0.892 -2,2 l 0,16 2,0 0,-16 7,0 0,16 2,0 0,-16 C 21,3.892 20.108,3 19,3 Z"
       style="opacity:1;fill:#000000;fill-opacity:1;stroke:none;stroke-width:0.1;stroke-linecap:round;stroke-linejoin:round;stroke-miterlimit:4;stroke-dasharray:none;stroke-dashoffset:0;stroke-opacity:1" />
    <rect
       y="19"
       x="2"
       height="2"
       width="20"
       id="rect4170"
       style="opacity:1;fill:#000000;fill-opacity:1;stroke:none;stroke-width:0.1;stroke-linecap:round;stroke-linejoin:round;stroke-miterlimit:4;stroke-dasharray:none;stroke-dashoffset:0;stroke-opacity:1" />
    <rect
       y="11"
       x="16"
       height="2"
       width="2"
       id="rect4183"
       style="opacity:1;fill:#000000;fill-opacity:1;stroke:none;stroke-width:0.1;stroke-linecap:round;stroke-linejoin:round;stroke-miterlimit:4;stroke-dasharray:none;stroke-dashoffset:0;stroke-opacity:1" />
  </g>
  <g
     style="display:inline"
     id="g4172">
    <path
       id="rect4180"
       d="M 12 3 C 10.892 3 10 3.892 10 5 L 3 5 L 3 19 L 2 19 L 2 21 L 22 21 L 22 19 L 21 19 L 21 5 C 21 3.892 20.108 3 19 3 L 12 3 z M 12 5 L 19 5 L 19 19 L 12 19 L 12 5 z M 5 11 L 7 11 L 7 13 L 5 13 L 5 11 z "
       style="opacity:1;fill:#000000;fill-opacity:1;stroke:none;stroke-width:0.1;stroke-linecap:round;stroke-linejoin:round;stroke-miterlimit:4;stroke-dasharray:none;stroke-dashoffset:0;stroke-opacity:1" />
  </g>
</svg>
